<svg id="Layer_1" data-name="Layer 1" xmlns="http://www.w3.org/2000/svg" viewBox="0 0 500 500"><polygon points="49.5 312.17 49.51 312.17 49.53 312.17 49.53 312.17 132.28 177.29 332.38 224.09 450.44 306.83 450.5 306.87 450.5 119.17 49.5 119.17 49.5 312.17"/><polygon points="62.72 351.72 75.36 351.72 75.36 348.78 62.72 348.78 62.72 335.12 76.63 335.12 76.63 332.19 59.43 332.19 59.43 370.13 76.88 370.13 76.88 367.2 62.72 367.2 62.72 351.72"/><path d="M92.57,331.28c-10.07,0-11.13,11-11.13,18.82,0,8,0,20.94,11,20.94,10.67,0,11.28-10.82,11.28-19.07S103.7,331.28,92.57,331.28Zm.2,36.83c-8.35,0-8-11.43-8-17.25,0-5.47,0-16.65,7.69-16.65,8.09,0,8,11.43,8,17C100.46,356.57,100.77,368.11,92.77,368.11Z"/><path d="M120.25,349.44l-2.94-1.22c-3.39-1.46-4.6-2.93-4.6-6.67,0-4.15,2.22-7.34,6.52-7.34s6.73,2.93,6.53,7.13H129c.15-6-3.75-10.06-9.67-10.06-6.17,0-9.86,4.3-9.86,10.47s3.64,8.35,8.75,10.37c4.35,1.72,8.5,2.63,8.5,8.35,0,4.71-3,7.64-7.64,7.64-5.21,0-7.18-3.95-7.13-8.7h-3.24c-.15,6.73,3.49,11.63,10.42,11.63,6.63,0,10.88-4.14,10.88-10.67C130,353.49,125.81,351.77,120.25,349.44Z"/><rect x="135.93" y="332.19" width="3.29" height="37.95"/><path d="M157.23,331.28c-10.07,0-11.13,11-11.13,18.82,0,8,.05,20.94,11,20.94,10.68,0,11.28-10.82,11.28-19.07S168.36,331.28,157.23,331.28Zm.2,36.83c-8.35,0-8-11.43-8-17.25,0-5.47.05-16.65,7.69-16.65,8.09,0,8,11.43,8,17C165.12,356.57,165.43,368.11,157.43,368.11Z"/><polygon points="175.04 370.13 179.24 370.13 179.24 352.22 191.89 352.22 191.89 348.43 179.24 348.43 179.24 335.98 192.85 335.98 192.85 332.19 175.04 332.19 175.04 370.13"/><path d="M209.34,331.43c-11.28,0-12.59,10.22-12.59,18.92.1,10.53,1.41,20.69,12.49,20.69s12.45-10.16,12.5-20.69C221.79,341.65,220.43,331.43,209.34,331.43Zm-.1,35.82c-7,0-8.09-5.82-8.14-16.8,0-8.45,1.57-15.23,8-15.23,6.68,0,8.3,6.78,8.25,15.23C217.34,361.43,216.23,367.25,209.24,367.25Z"/><path d="M247.34,359.46c0,3-.45,7.79-7.18,7.79s-7.24-4.81-7.19-7.79V332.19h-4.2V361c0,6.78,4.51,10.06,11.39,10.06s11.38-3.28,11.38-10.06V332.19h-4.2Z"/><path d="M278.41,363.15c0,1.42,0,2.89.1,4.25h-.1c-.51-1.77-.86-3-1.32-4.15l-10.77-31.06h-6.83v37.94h4.2V339.88c0-1.93-.06-3.9-.11-5.82h.11a31.06,31.06,0,0,0,1.41,5.72l10.63,30.35h6.88V332.19h-4.2Z"/><path d="M301.08,332.19H290.65v37.94h11.19c10.27,0,12.09-9.71,12.39-19S312.92,332.19,301.08,332.19Zm.5,34.15h-6.73V336h6.73c6.78,0,8,5.77,8.3,14.42C310.29,361.73,307.76,366.34,301.58,366.34Z"/><path d="M328.8,332.19,318,370.13h4.65l2.78-10.92h12l3,10.92h4.66l-10.68-37.94Zm-2.37,23.22,5-20.19h.1l4.91,20.19Z"/><polygon points="343.53 335.98 353.35 335.98 353.35 370.13 357.54 370.13 357.54 335.98 367.36 335.98 367.36 332.19 343.53 332.19 343.53 335.98"/><rect x="373.03" y="332.19" width="4.2" height="37.95"/><path d="M397.72,331.43c-11.29,0-12.6,10.22-12.6,18.92.1,10.53,1.42,20.69,12.5,20.69s12.44-10.16,12.49-20.69C410.17,341.65,408.8,331.43,397.72,331.43Zm-.1,35.82c-7,0-8.1-5.82-8.15-16.8-.05-8.45,1.57-15.23,8-15.23,6.67,0,8.29,6.78,8.24,15.23C405.71,361.43,404.6,367.25,397.62,367.25Z"/><path d="M435.87,363.15c0,1.42.05,2.89.1,4.25h-.1c-.51-1.77-.86-3-1.32-4.15l-10.77-31.06H417v37.94h4.19V339.88c0-1.93-.05-3.9-.1-5.82h.1a31,31,0,0,0,1.42,5.72l10.63,30.35h6.88V332.19h-4.2Z"/></svg>
